<svg xmlns="http://www.w3.org/2000/svg" viewBox="0 0 1280 720" role="img" aria-label="Abstract analytics background">
<defs><linearGradient id="g" x1="0" y1="0" x2="1" y2="1"><stop stop-color="#0a1020"/><stop offset="1" stop-color="#1e3a8a"/></linearGradient><linearGradient id="line" x1="0" y1="0" x2="1" y2="0"><stop stop-color="#ec4899" stop-opacity=".25"/><stop offset="1" stop-color="#ec4899" stop-opacity=".75"/></linearGradient><pattern id="grid" width="48" height="48" patternUnits="userSpaceOnUse"><path d="M48 0H0V48" fill="none" stroke="#fff" stroke-opacity=".035"/></pattern></defs>
<rect width="1280" height="720" fill="url(#g)"/><rect width="1280" height="720" fill="url(#grid)"/><circle cx="1080" cy="120" r="170" fill="#ec4899" opacity="0.1"/><circle cx="180" cy="150" r="110" fill="#ec4899" opacity="0.08"/><circle cx="720" cy="620" r="220" fill="#ec4899" opacity="0.07"/>
<path d="M110 600V440H270V600ZM350 600V320H510V600ZM590 600V210H750V600ZM830 600V370H990V600ZM1070 600V130H1230V600Z" fill="url(#line)" stroke="#ec4899" stroke-opacity=".45" stroke-width="3"/>
<path d="M0 640C260 560 420 700 690 610S1030 500 1280 590" fill="none" stroke="#fff" stroke-opacity=".08" stroke-width="2"/>
</svg>